# xmcd
#
# Track frame offsets:
# 182
# 12142
# 29092
# 45067
# 58717
# 77242
# 91267
# 107917
# 119470
# 136492
# 143242
# 153517
#
# Disc length: 2353 seconds
#
#
# Revision: 1
# Processed by: cddbd v1.5.2PL0 Copyright (c) Steve Scherf et al.
# Submitted via: FreeRIP 2.951 
#
DISCID=9c092f0c
DTITLE=Blanket - Blanket and Annie - spolu-
DYEAR=1994
DGENRE=Bluegrass
TTITLE0=WHY THEY ALWAYS LOOK BETTER
TTITLE1=MAMA WAS A WORKIN´  MAN
TTITLE2=BLUE BAYOU
TTITLE3=HELP ME MAKE IT THROUGH THE NIGHT
TTITLE4=DON´T TUSS US AWAY
TTITLE5=GULF COAST HIGHWAY
TTITLE6=I´M WALKIN´
TTITLE7=NEVNIMAM VZDALENY CAS
TTITLE8=POSLOUCHEJ, VSE ZACINA HROU
TTITLE9=Soudnej den
TTITLE10=LA ARBOLEDA
TTITLE11=FEEL LIKE GOING HOME
EXTD=
EXTT0=
EXTT1=
EXTT2=
EXTT3=
EXTT4=
EXTT5=
EXTT6=
EXTT7=
EXTT8=
EXTT9=
EXTT10=
EXTT11=
PLAYORDER=
